<svg width="110" height="25" viewBox="0 0 110 25" fill="none" xmlns="http://www.w3.org/2000/svg">
<path d="M12 0.4375H9.53333L0 24.8646H2.33333L10.8 2.67083L16 16.35L19.2 24.8646H21.5333L12 0.4375Z" fill="white"/>
<path d="M40.8672 0.4375H38.8672V24.8646H40.8672V0.4375Z" fill="white"/>
<path d="M76.3334 7.55625C76.3334 3.08958 73.2668 0.4375 69.2668 0.4375H60.6001V24.8646H62.6001V14.7448H67.7334L74.2668 24.8646H76.6668L69.9334 14.6052C73.4001 14.4656 76.3334 12.0229 76.3334 7.55625ZM62.6001 12.8604V2.32188H69.1334C72.2668 2.32188 74.2668 4.48542 74.2668 7.55625C74.2668 10.6271 72.2001 12.8604 69.1334 12.8604H62.6001Z" fill="white"/>
<path d="M110 2.32188V0.4375H95.2671V24.8646H110V22.9802H97.2671V13.2792H109.734V11.3948H97.2671V2.32188H110Z" fill="white"/>
</svg>
