<svg width="165" height="19" viewBox="0 0 165 19" fill="none" xmlns="http://www.w3.org/2000/svg">
<g clip-path="url(#clip0_413_6412)">
<path d="M51.7562 2.4097L47.8438 17.5665H43.4182L41.0236 7.59152L38.5436 17.5665H34.118L30.3124 2.4097H34.2249L36.3842 13.4427L39.0567 2.4097H43.0761L45.6416 13.4427L47.8224 2.4097H51.7562Z" fill="#33302F"/>
<path d="M63.84 12.4279H55.5661C55.6217 13.1749 55.8611 13.7493 56.2845 14.1465C56.7035 14.5438 57.2209 14.7424 57.8324 14.7424C58.7431 14.7424 59.3802 14.3538 59.7351 13.5765H63.6263C63.4253 14.3668 63.0661 15.0793 62.5487 15.714C62.027 16.3488 61.3771 16.8454 60.5903 17.2038C59.8078 17.5622 58.9313 17.7436 57.9606 17.7436C56.7933 17.7436 55.75 17.4931 54.8392 16.9879C53.9284 16.4827 53.2143 15.7659 52.7012 14.8288C52.1881 13.8918 51.9316 12.7993 51.9316 11.547C51.9316 10.2947 52.1838 9.20222 52.6884 8.26517C53.193 7.32813 53.9028 6.61131 54.8178 6.10608C55.7286 5.60086 56.7762 5.3504 57.9606 5.3504C59.1151 5.3504 60.1414 5.59654 61.0393 6.08449C61.9373 6.57245 62.6385 7.27199 63.1431 8.17881C63.6476 9.08563 63.8999 10.1436 63.8999 11.3527C63.9042 11.6938 63.8828 12.0565 63.84 12.4279ZM60.1627 10.3768C60.1627 9.74199 59.9489 9.24108 59.5213 8.8654C59.0938 8.48972 58.5593 8.30404 57.9179 8.30404C57.3064 8.30404 56.789 8.4854 56.37 8.84381C55.9509 9.20222 55.6901 9.71608 55.5918 10.3768H60.1627Z" fill="#33302F"/>
<path d="M74.3418 14.6949H68.3982L67.4147 17.5665H64.2719L69.6382 2.47449H73.1231L78.4894 17.5665H75.3252L74.3418 14.6949ZM73.5293 12.2768L71.37 5.97221L69.2106 12.2768H73.5293Z" fill="#33302F"/>
<path d="M89.966 6.78401C90.8341 7.68219 91.2702 8.93878 91.2702 10.5538V17.5708H88.2771V10.964C88.2771 10.014 88.0419 9.28424 87.5715 8.77037C87.1012 8.26083 86.4598 8.00606 85.6473 8.00606C84.8221 8.00606 84.1679 8.26083 83.6932 8.77037C83.2143 9.27992 82.9792 10.014 82.9792 10.964V17.5708H79.986V5.60946H82.9792V7.09924C83.3768 6.58106 83.8857 6.17515 84.5057 5.87719C85.1257 5.58356 85.8056 5.43674 86.5453 5.43674C87.9564 5.43242 89.0938 5.88583 89.966 6.78401Z" fill="#33302F"/>
<path d="M95.6531 17.234C94.8834 16.8799 94.2719 16.4049 93.823 15.8004C93.374 15.1958 93.1302 14.5265 93.0875 13.7924H96.102C96.1576 14.2545 96.3842 14.6345 96.7776 14.9368C97.171 15.239 97.6585 15.3902 98.24 15.3902C98.8087 15.3902 99.2577 15.2736 99.5741 15.0447C99.8905 14.8158 100.053 14.5179 100.053 14.1595C100.053 13.7708 99.8563 13.4815 99.4629 13.2872C99.0695 13.0929 98.4452 12.8813 97.5901 12.6481C96.7049 12.4322 95.9823 12.2077 95.4179 11.9788C94.8535 11.7499 94.3703 11.3958 93.9641 10.9208C93.5578 10.4458 93.3526 9.80675 93.3526 8.99925C93.3526 8.33857 93.5407 7.73402 93.9213 7.18562C94.2976 6.63721 94.8406 6.20539 95.5462 5.89016C96.2517 5.57493 97.0812 5.41516 98.039 5.41516C99.4501 5.41516 100.575 5.76925 101.417 6.48607C102.259 7.19857 102.721 8.16153 102.807 9.3663H99.9418C99.8991 8.8913 99.7024 8.5113 99.3517 8.23493C99.0011 7.95425 98.535 7.81175 97.9492 7.81175C97.4062 7.81175 96.9914 7.91107 96.7007 8.11403C96.4099 8.31698 96.2645 8.59766 96.2645 8.95607C96.2645 9.35766 96.4655 9.66425 96.8631 9.87153C97.2608 10.0788 97.8808 10.2947 98.7232 10.5106C99.5784 10.7265 100.284 10.9511 100.84 11.1799C101.396 11.4088 101.879 11.7672 102.285 12.2465C102.691 12.7302 102.901 13.3649 102.918 14.1552C102.918 14.8461 102.73 15.4636 102.349 16.012C101.973 16.5604 101.43 16.9879 100.724 17.2945C100.019 17.6054 99.1935 17.7608 98.2528 17.7608C97.2907 17.7608 96.4227 17.5838 95.6531 17.234Z" fill="#33302F"/>
<path d="M121.27 5.60516L117.807 17.5665H114.578L112.419 9.21085L110.26 17.5665H107.01L103.525 5.60516H106.561L108.656 14.7165L110.922 5.60516H114.087L116.31 14.6949L118.405 5.60516H121.27Z" fill="#33302F"/>
<path d="M133.294 12.4927H124.635C124.708 13.3563 125.007 14.0343 125.533 14.5222C126.059 15.0102 126.709 15.2563 127.479 15.2563C128.591 15.2563 129.382 14.7727 129.852 13.8097H133.08C132.738 14.9627 132.084 15.9083 131.113 16.6511C130.143 17.3938 128.954 17.7652 127.543 17.7652C126.401 17.7652 125.379 17.5104 124.477 16.9965C123.571 16.487 122.865 15.7615 122.361 14.8288C121.856 13.8918 121.604 12.8122 121.604 11.5902C121.604 10.3508 121.852 9.26698 122.352 8.32993C122.852 7.39289 123.549 6.67607 124.447 6.17084C125.345 5.66562 126.38 5.41516 127.547 5.41516C128.672 5.41516 129.681 5.6613 130.575 6.14925C131.464 6.63721 132.157 7.33243 132.648 8.23493C133.14 9.13312 133.388 10.1695 133.388 11.3311C133.38 11.7586 133.35 12.1472 133.294 12.4927ZM130.28 10.4631C130.267 9.68584 129.989 9.06402 129.446 8.59766C128.903 8.1313 128.24 7.89812 127.457 7.89812C126.718 7.89812 126.093 8.12266 125.585 8.57607C125.08 9.02948 124.768 9.65993 124.657 10.4674L130.28 10.4631Z" fill="#33302F"/>
<path d="M139.824 5.97221C140.444 5.6138 141.153 5.43243 141.953 5.43243V8.6063H141.162C140.221 8.6063 139.511 8.83084 139.037 9.27562C138.558 9.72039 138.323 10.4977 138.323 11.6074V17.5665H135.33V5.60516H138.323V7.46198C138.703 6.83153 139.204 6.33493 139.824 5.97221Z" fill="#33302F"/>
<path d="M142.41 17.2124C142.06 16.8756 141.889 16.4524 141.889 15.9515C141.889 15.4463 142.064 15.0274 142.41 14.6906C142.761 14.3538 143.206 14.1854 143.745 14.1854C144.27 14.1854 144.707 14.3538 145.049 14.6906C145.391 15.0274 145.562 15.4506 145.562 15.9515C145.562 16.4568 145.391 16.8756 145.049 17.2124C144.707 17.5493 144.27 17.7177 143.745 17.7177C143.206 17.7177 142.757 17.5493 142.41 17.2124Z" fill="#FF9000"/>
<path d="M147.405 8.3256C147.884 7.38856 148.529 6.67174 149.35 6.16651C150.171 5.66128 151.086 5.41083 152.095 5.41083C152.981 5.41083 153.755 5.59219 154.413 5.9506C155.076 6.30901 155.606 6.76242 156.008 7.31083V5.60515H159.022V17.5665H156.008V15.8176C155.623 16.379 155.093 16.8454 154.413 17.2081C153.737 17.5751 152.955 17.7608 152.074 17.7608C151.078 17.7608 150.167 17.5017 149.346 16.9836C148.525 16.4654 147.879 15.7356 147.4 14.7899C146.922 13.8486 146.686 12.7647 146.686 11.5383C146.691 10.3336 146.926 9.26265 147.405 8.3256ZM155.585 9.69878C155.298 9.17196 154.913 8.77037 154.43 8.48969C153.947 8.20901 153.425 8.06651 152.869 8.06651C152.314 8.06651 151.8 8.20469 151.33 8.47674C150.86 8.74878 150.479 9.15037 150.188 9.67287C149.898 10.1997 149.748 10.8215 149.748 11.5383C149.748 12.2595 149.893 12.8856 150.188 13.4297C150.479 13.9695 150.864 14.384 151.343 14.669C151.822 14.9583 152.331 15.1008 152.869 15.1008C153.425 15.1008 153.947 14.9583 154.43 14.682C154.913 14.4013 155.298 13.9997 155.585 13.4729C155.871 12.9461 156.012 12.3156 156.012 11.5815C156.012 10.8517 155.867 10.2256 155.585 9.69878Z" fill="#33302F"/>
<path d="M161.849 3.67493C161.498 3.33812 161.327 2.91493 161.327 2.40971C161.327 1.90448 161.503 1.48562 161.849 1.1488C162.2 0.811979 162.636 0.639252 163.166 0.639252C163.692 0.639252 164.132 0.807661 164.483 1.1488C164.834 1.48562 165.005 1.9088 165.005 2.40971C165.005 2.91493 164.829 3.3338 164.483 3.67493C164.132 4.01175 163.696 4.18016 163.166 4.18016C162.636 4.18016 162.195 4.01175 161.849 3.67493ZM164.637 5.60516V17.5665H161.644V5.60516H164.637Z" fill="#33302F"/>
<path d="M18.8101 9.22357C18.6562 3.97698 14.3246 -0.151204 9.13365 0.00425022C4.0966 0.151068 0.107143 4.2663 0.00452008 9.29698H0.000244141V18.9999H9.60828V18.9956C9.63394 18.9956 9.65959 18.9956 9.68097 18.9956C14.8762 18.8402 18.964 14.4658 18.8101 9.22357Z" fill="#FF9000"/>
<path d="M17.553 19.0002C22.7484 19.0002 26.9601 14.7469 26.9601 9.50015C26.9601 4.25345 22.7484 0.000152588 17.553 0.000152588C12.3576 0.000152588 8.14592 4.25345 8.14592 9.50015C8.14592 14.7469 12.3576 19.0002 17.553 19.0002Z" fill="#FFDC2E"/>
<path d="M18.8101 9.2238C18.7032 5.55335 16.5439 2.4313 13.478 0.941528C10.2369 2.51335 8.03903 5.90744 8.1502 9.77653C8.2571 13.447 10.4164 16.569 13.4823 18.0588C16.7277 16.487 18.9213 13.0929 18.8101 9.2238Z" fill="#FFB300"/>
<path d="M6.88024 11.7758C8.12477 11.7758 9.13367 10.757 9.13367 9.50014C9.13367 8.24331 8.12477 7.22446 6.88024 7.22446C5.63571 7.22446 4.62682 8.24331 4.62682 9.50014C4.62682 10.757 5.63571 11.7758 6.88024 11.7758Z" fill="white"/>
<path d="M13.5379 11.7758C14.7824 11.7758 15.7913 10.757 15.7913 9.50014C15.7913 8.24331 14.7824 7.22446 13.5379 7.22446C12.2934 7.22446 11.2845 8.24331 11.2845 9.50014C11.2845 10.757 12.2934 11.7758 13.5379 11.7758Z" fill="white"/>
<path d="M20.1955 11.7542C21.44 11.7542 22.4489 10.7354 22.4489 9.47856C22.4489 8.22174 21.44 7.20288 20.1955 7.20288C18.951 7.20288 17.9421 8.22174 17.9421 9.47856C17.9421 10.7354 18.951 11.7542 20.1955 11.7542Z" fill="white"/>
</g>
<defs>
<clipPath id="clip0_413_6412">
<rect width="165" height="19" fill="white" transform="translate(0.000244141)"/>
</clipPath>
</defs>
</svg>
